<svg class="nc-icon outline" xmlns="http://www.w3.org/2000/svg" xmlns:xlink="http://www.w3.org/1999/xlink" x="0px" y="0px" width="48px" height="48px" viewBox="0 0 48 48"><g transform="translate(0, 0)">
<path fill="none" stroke="#444444" stroke-width="2" stroke-linecap="square" stroke-miterlimit="10" d="M30.55438,22.16302
	c-0.63503-3.82723-1.88418-7.3959-3.3011-9.67357c-0.78552-1.26271-2.39166-1.84404-3.75803-1.25708
	c-1.74796,0.75087-2.3451,2.83718-1.36958,4.3745c1.62695,2.56381,2.48823,8.43154,2.10451,13.18829
	c-0.13899,1.723-2.28479,2.43868-3.46004,1.17107l-1.90258-2.0521c-1.32581-1.40662-3.54095-1.47211-4.94757-0.14624
	s-1.47211,3.54095-0.14624,4.94757L24,46h18l3.269-12.42222c0.96394-3.66298-1.16057-7.42824-4.79435-8.49701L30.55438,22.16302z" stroke-linejoin="miter"></path>
<path data-cap="butt" data-color="color-2" fill="none" stroke="#006fff" stroke-width="2" stroke-miterlimit="10" d="M2.03887,11.51477
	c0-4.1,3.4-7.5,7.5-7.5c3,0,5.5,1.73846,6.7,4.23846" stroke-linejoin="miter" stroke-linecap="butt"></path>
<polyline data-color="color-2" fill="none" stroke="#006fff" stroke-width="2" stroke-linecap="square" stroke-miterlimit="10" points="
	16.50762,3.40227 16.23887,8.25323 11.57012,8.71477 " stroke-linejoin="miter"></polyline>
<path data-cap="butt" data-color="color-2" fill="none" stroke="#006fff" stroke-width="2" stroke-miterlimit="10" d="M17.96113,12.48523
	c0,4.1-3.4,7.5-7.5,7.5c-3,0-5.5-1.73846-6.7-4.23846" stroke-linejoin="miter" stroke-linecap="butt"></path>
<polyline data-color="color-2" fill="none" stroke="#006fff" stroke-width="2" stroke-linecap="square" stroke-miterlimit="10" points="
	3.49238,20.59773 3.76113,15.74677 8.42988,15.28523 " stroke-linejoin="miter"></polyline>
</g></svg>